<svg xmlns="http://www.w3.org/2000/svg" viewBox="0 0 512 512">
  <!-- Fond rose-violet pastel -->
  <rect width="512" height="512" rx="110" fill="#f0d4ff"/>

  <!-- Ours pixel art — couleurs exactes du site, centré (scale 18.5, offset 55) -->
  <g transform="translate(55,55) scale(18.5)">
    <!-- LEFT EAR -->
    <rect x="5" y="0" width="1" height="1" fill="#8844bb"/>
    <rect x="4" y="1" width="3" height="1" fill="#8844bb"/>
    <!-- RIGHT EAR -->
    <rect x="16" y="0" width="1" height="1" fill="#8844bb"/>
    <rect x="15" y="1" width="3" height="1" fill="#8844bb"/>
    <!-- FACE TOP ROUNDING -->
    <rect x="3" y="2" width="16" height="1" fill="#9955cc"/>
    <rect x="2" y="3" width="18" height="1" fill="#9955cc"/>
    <!-- FACE MAIN BODY rows 4-6 -->
    <rect x="1" y="4" width="20" height="3" fill="#9955cc"/>
    <!-- row 7 (eyes upper) -->
    <rect x="1" y="7" width="6" height="1" fill="#9955cc"/>
    <rect x="7" y="7" width="2" height="1" fill="#0d0020"/>
    <rect x="9" y="7" width="4" height="1" fill="#9955cc"/>
    <rect x="13" y="7" width="2" height="1" fill="#0d0020"/>
    <rect x="15" y="7" width="6" height="1" fill="#9955cc"/>
    <!-- row 8 (eyes lower) -->
    <rect x="1" y="8" width="6" height="1" fill="#9955cc"/>
    <rect x="7" y="8" width="2" height="1" fill="#0d0020"/>
    <rect x="9" y="8" width="4" height="1" fill="#9955cc"/>
    <rect x="13" y="8" width="2" height="1" fill="#0d0020"/>
    <rect x="15" y="8" width="6" height="1" fill="#9955cc"/>
    <!-- rows 9-11 -->
    <rect x="1" y="9" width="20" height="3" fill="#9955cc"/>
    <!-- FACE SIDES rows 12-17 -->
    <rect x="1" y="12" width="5" height="6" fill="#9955cc"/>
    <rect x="16" y="12" width="5" height="6" fill="#9955cc"/>
    <!-- MUZZLE -->
    <rect x="6" y="12" width="10" height="6" fill="#e2c8f8"/>
    <!-- NOSE -->
    <rect x="9" y="12" width="4" height="2" fill="#0d0020"/>
    <rect x="10" y="14" width="2" height="1" fill="#0d0020"/>
    <!-- MOUTH -->
    <rect x="8"  y="15" width="2" height="1" fill="#0d0020"/>
    <rect x="12" y="15" width="2" height="1" fill="#0d0020"/>
    <rect x="9"  y="16" width="1" height="1" fill="#0d0020"/>
    <rect x="12" y="16" width="1" height="1" fill="#0d0020"/>
    <!-- FACE BOTTOM -->
    <rect x="2" y="18" width="18" height="1" fill="#9955cc"/>
    <rect x="3" y="19" width="16" height="1" fill="#9955cc"/>
    <rect x="4" y="20" width="14" height="1" fill="#8844bb"/>
    <rect x="6" y="21" width="10" height="1" fill="#8844bb"/>
  </g>
</svg>
