<svg xmlns="http://www.w3.org/2000/svg" viewBox="0 0 512 512">
  <!-- Fond rose-violet pastel avec coins arrondis -->
  <rect width="512" height="512" rx="110" fill="#f2d4ff"/>

  <!-- Ours pixel art centré (scale 18, offset 58) -->
  <g transform="translate(58,58) scale(18)">
    <!-- LEFT EAR -->
    <rect x="5" y="0" width="1" height="1" fill="#7733aa"/>
    <rect x="4" y="1" width="3" height="1" fill="#7733aa"/>
    <!-- RIGHT EAR -->
    <rect x="16" y="0" width="1" height="1" fill="#7733aa"/>
    <rect x="15" y="1" width="3" height="1" fill="#7733aa"/>
    <!-- FACE TOP ROUNDING -->
    <rect x="3" y="2" width="16" height="1" fill="#9955cc"/>
    <rect x="2" y="3" width="18" height="1" fill="#9955cc"/>
    <!-- FACE MAIN -->
    <rect x="1" y="4" width="20" height="3" fill="#9955cc"/>
    <!-- Eyes row 7 -->
    <rect x="1" y="7" width="6" height="1" fill="#9955cc"/>
    <rect x="7" y="7" width="2" height="1" fill="#2a004a"/>
    <rect x="9" y="7" width="4" height="1" fill="#9955cc"/>
    <rect x="13" y="7" width="2" height="1" fill="#2a004a"/>
    <rect x="15" y="7" width="6" height="1" fill="#9955cc"/>
    <!-- Eyes row 8 -->
    <rect x="1" y="8" width="6" height="1" fill="#9955cc"/>
    <rect x="7" y="8" width="2" height="1" fill="#2a004a"/>
    <rect x="9" y="8" width="4" height="1" fill="#9955cc"/>
    <rect x="13" y="8" width="2" height="1" fill="#2a004a"/>
    <rect x="15" y="8" width="6" height="1" fill="#9955cc"/>
    <!-- rows 9-11 -->
    <rect x="1" y="9" width="20" height="3" fill="#9955cc"/>
    <!-- FACE SIDES -->
    <rect x="1" y="12" width="5" height="6" fill="#9955cc"/>
    <rect x="16" y="12" width="5" height="6" fill="#9955cc"/>
    <!-- MUZZLE -->
    <rect x="6" y="12" width="10" height="6" fill="#edd4fb"/>
    <!-- NOSE -->
    <rect x="9" y="12" width="4" height="2" fill="#2a004a"/>
    <rect x="10" y="14" width="2" height="1" fill="#2a004a"/>
    <!-- MOUTH -->
    <rect x="8"  y="15" width="2" height="1" fill="#2a004a"/>
    <rect x="12" y="15" width="2" height="1" fill="#2a004a"/>
    <rect x="9"  y="16" width="1" height="1" fill="#2a004a"/>
    <rect x="12" y="16" width="1" height="1" fill="#2a004a"/>
    <!-- FACE BOTTOM -->
    <rect x="2" y="18" width="18" height="1" fill="#9955cc"/>
    <rect x="3" y="19" width="16" height="1" fill="#9955cc"/>
    <rect x="4" y="20" width="14" height="1" fill="#7733aa"/>
    <rect x="6" y="21" width="10" height="1" fill="#7733aa"/>
  </g>
</svg>
